# xmcd
#
# Track frame offsets: 
#        150
#        25717
#        48128
#        77708
#        101201
#        127696
#        152654
#        184274
#        216593
#        258183
#        288745
#
# Disc length: 4376 seconds
#
# Revision: 1
# Processed by: cddbd v1.5.2PL0 Copyright (c) Steve Scherf et al.
# Submitted via: ExactAudioCopy v1.0b1
#
DISCID=9411160b
DTITLE=Avenged Sevenfold - City Of Evil
DYEAR=2005
DGENRE=Heavy Metal
TTITLE0=Beast And The Harlot
TTITLE1=Burn It Down
TTITLE2=Blinded In Chains
TTITLE3=Bat Country
TTITLE4=Trashed And Scattered
TTITLE5=Seize The Day
TTITLE6=Sidewinder
TTITLE7=The Wicked End
TTITLE8=Strength Of The World
TTITLE9=Betrayed
TTITLE10=M.I.A.
EXTD=
EXTT0=
EXTT1=
EXTT2=
EXTT3=
EXTT4=
EXTT5=
EXTT6=
EXTT7=
EXTT8=
EXTT9=
EXTT10=
PLAYORDER=
